<svg fill="#e9a209" height="200px" width="200px" version="1.1" id="Layer_1"
    xmlns="http://www.w3.org/2000/svg" xmlns:xlink="http://www.w3.org/1999/xlink"
    viewBox="0 0 512 512" xml:space="preserve" stroke="#e9a209"><g id="SVGRepo_bgCarrier" stroke-width="0"></g><g id="SVGRepo_tracerCarrier" stroke-linecap="round" stroke-linejoin="round"></g><g id="SVGRepo_iconCarrier"> <g> <g> <path d="M330.318,308.916l-9.892-9.892c-3.161-3.161-8.285-3.161-11.444,0c-3.16,3.16-3.16,8.285,0,11.444l9.892,9.891 c1.58,1.58,3.651,2.371,5.722,2.371s4.142-0.79,5.722-2.371C333.479,317.2,333.479,312.075,330.318,308.916z"></path> </g> </g> <g> <g> <path d="M234.8,371.654l-9.892-9.892c-3.161-3.16-8.285-3.16-11.444,0c-3.161,3.16-3.161,8.284,0,11.444l9.892,9.891 c1.58,1.581,3.651,2.371,5.722,2.371s4.142-0.79,5.722-2.371C237.96,379.938,237.96,374.815,234.8,371.654z"></path> </g> </g> <g> <g> <path d="M282.353,340.081l-9.892-9.892c-3.161-3.16-8.285-3.16-11.444,0c-3.161,3.16-3.161,8.285,0,11.444l9.892,9.891 c1.58,1.58,3.651,2.371,5.722,2.371s4.142-0.79,5.722-2.371C285.513,348.365,285.513,343.24,282.353,340.081z"></path> </g> </g> <g> <g> <path d="M512,160.899c0-28.316-11.028-54.938-31.05-74.961c-41.334-41.334-108.587-41.333-149.919,0l-29.096,29.096 c-4.548-1.422-9.2-2.417-13.896-2.988c-24.621-14.247-56.01-16.601-81.862-6.4l-25.205-25.206 c-20.023-20.023-46.645-31.05-74.96-31.05S51.072,60.418,31.051,80.44C11.027,100.463,0,127.084,0,155.4 s11.027,54.937,31.049,74.96l68.235,68.235c-1.582,1.133-3.095,2.402-4.515,3.822l-9.892,9.892 c-6.812,6.812-10.565,15.87-10.565,25.504c0,9.634,3.753,18.692,10.565,25.504c6.812,6.813,15.87,10.565,25.504,10.565 c1.245,0,2.481-0.066,3.704-0.19c-1.062,10.422,2.388,21.221,10.356,29.189c7.032,7.032,16.269,10.548,25.505,10.548 c2.839,0,5.677-0.336,8.451-0.999c0.111,9.472,3.845,18.361,10.554,25.07c6.812,6.813,15.87,10.565,25.504,10.565 c4.338,0,8.557-0.767,12.508-2.225l5.648,5.648c7.36,7.36,17.149,11.123,26.823,11.123c8.045,0,16.012-2.604,22.431-7.905 c7.728-6.383,12.483-15.702,13.101-25.636c11.658,3.902,24.804,2.03,34.454-5.939c7.66-6.326,12.399-15.536,13.083-25.371 c11.764,4.092,25.112,2.275,34.881-5.793c7.67-6.335,12.411-15.561,13.086-25.41c11.749,4.065,25.066,2.239,34.817-5.816 c7.862-6.494,12.647-16.025,13.129-26.151c0.465-9.765-3.091-19.33-9.767-26.428l72.301-72.301 C500.973,215.837,512,189.215,512,160.899z M110.383,357.696c-5.311,0-10.304-2.069-14.06-5.824 c-7.753-7.753-7.753-20.367,0-28.12l9.892-9.892c3.877-3.877,8.968-5.814,14.06-5.814c5.091,0,10.184,1.938,14.06,5.814 c7.753,7.753,7.753,20.367,0,28.12l-9.892,9.891C120.687,355.628,115.694,357.696,110.383,357.696z M164.007,391.436 c-7.753,7.753-20.367,7.753-28.12,0s-7.753-20.367,0-28.12c7.753-7.753,20.367-7.752,28.12,0 C171.76,371.07,171.76,383.684,164.007,391.436z M208.518,426.055c-3.755,3.756-8.749,5.824-14.06,5.824 s-10.304-2.067-14.06-5.824c-3.755-3.755-5.824-8.749-5.824-14.06c0-5.311,2.069-10.304,5.824-14.06 c3.755-3.756,8.749-5.824,14.06-5.824s10.304,2.068,14.06,5.824c3.756,3.755,5.824,8.749,5.824,14.06 C214.341,417.306,212.273,422.299,208.518,426.055z M394.982,348.26c-7.777,6.422-19.856,5.463-27.503-2.183l-7.487-7.487 l-9.891-9.892c-3.161-3.162-8.285-3.16-11.444,0c-3.16,3.16-3.16,8.285,0,11.444l9.892,9.891 c3.953,3.953,6.067,9.424,5.801,15.013c-0.27,5.664-2.851,10.792-7.268,14.44c-7.777,6.424-19.857,5.463-27.503-2.182l-7.55-7.55 l-9.892-9.892c-3.16-3.16-8.285-3.16-11.444,0c-3.16,3.161-3.16,8.285,0,11.444l9.892,9.892c3.953,3.953,6.067,9.424,5.801,15.013 c-0.27,5.664-2.851,10.791-7.268,14.44c-7.777,6.422-19.856,5.463-27.503-2.183l-7.139-7.14l-9.892-9.892 c-3.16-3.162-8.285-3.16-11.444,0c-3.16,3.161-3.16,8.285,0,11.444l9.886,9.885c0.002,0.002,0.003,0.003,0.005,0.005 c3.953,3.952,6.067,9.424,5.801,15.014c-0.27,5.663-2.851,10.79-7.268,14.44c-7.777,6.424-19.856,5.463-27.503-2.183l-3.339-3.337 c6.328-6.715,9.807-15.442,9.807-24.709c0-9.635-3.752-18.692-10.565-25.504c-6.812-6.813-15.87-10.565-25.504-10.565 c-2.891,0-5.728,0.344-8.468,1.001c-0.112-9.087-3.619-18.138-10.537-25.055c-6.083-6.083-13.816-9.529-21.772-10.35 c5.285-13.033,2.652-28.552-7.902-39.105c-8.185-8.185-19.355-11.596-30.036-10.254l-73.248-73.248 c-16.968-16.966-26.311-39.522-26.311-63.514c0-23.992,9.343-46.55,26.309-63.515C59.46,74.919,82.017,65.577,106.01,65.577 s46.55,9.343,63.515,26.309l29.099,29.101c2.426,2.426,6.116,3.057,9.211,1.58c13.218-6.316,28.627-8.35,43.552-6.254 c-10.231,3.78-19.828,9.751-28.033,17.955l-49.456,49.456c-14.063,14.063-14.063,36.945,0,51.009 c7.032,7.032,16.266,10.548,25.504,10.548c9.235,0,18.474-3.517,25.505-10.548l43.733-43.733l127.808,127.808 c3.953,3.952,6.067,9.424,5.801,15.013C401.98,339.482,399.399,344.611,394.982,348.26z M397.225,296.695l-117.14-117.14 l4.169-4.169c3.16-3.161,3.16-8.285,0-11.444c-3.161-3.16-8.285-3.16-11.444,0l-59.347,59.347c-7.753,7.753-20.368,7.752-28.12,0 c-7.753-7.753-7.753-20.367,0-28.12l49.456-49.456c24.115-24.114,63.351-24.114,87.467,0c3.16,3.16,8.285,3.16,11.444,0 c3.161-3.161,3.161-8.285,0-11.444c-4.858-4.858-10.206-8.931-15.881-12.238l24.646-24.646c35.022-35.021,92.008-35.022,127.031,0 c35.022,35.022,35.022,92.008,0,127.031L397.225,296.695z"></path> </g> </g> </g></svg>