<?xml version="1.0" encoding="iso-8859-1"?>
<!-- Uploaded to: SVG Repo, www.svgrepo.com, Generator: SVG Repo Mixer Tools -->
<svg fill="#e9a209" height="800px" width="800px" version="1.1" id="Capa_1" xmlns="http://www.w3.org/2000/svg" xmlns:xlink="http://www.w3.org/1999/xlink" 
	 viewBox="0 0 470 470" xml:space="preserve">
<g>
	<path d="M277.185,261.951c3.842,1.557,8.213-0.296,9.767-4.136c10.25-25.312,34.507-41.666,61.799-41.666
		s51.549,16.354,61.799,41.666c1.181,2.917,3.988,4.687,6.954,4.687c0.937,0,1.89-0.177,2.813-0.551
		c3.839-1.555,5.691-5.927,4.136-9.767c-12.554-31.003-42.269-51.035-75.701-51.035s-63.147,20.032-75.701,51.035
		C271.493,256.024,273.346,260.396,277.185,261.951z"/>
	<path d="M348.75,186.149c28.948,0,52.5-23.552,52.5-52.5s-23.552-52.5-52.5-52.5s-52.5,23.552-52.5,52.5
		S319.802,186.149,348.75,186.149z M348.75,96.149c20.678,0,37.5,16.822,37.5,37.5s-16.822,37.5-37.5,37.5s-37.5-16.822-37.5-37.5
		S328.072,96.149,348.75,96.149z"/>
	<path d="M49.685,261.951c3.841,1.557,8.213-0.296,9.767-4.136c10.25-25.312,34.507-41.666,61.799-41.666
		s51.549,16.354,61.799,41.666c1.181,2.917,3.988,4.687,6.954,4.687c0.937,0,1.89-0.177,2.813-0.551
		c3.839-1.555,5.691-5.927,4.136-9.767c-12.554-31.003-42.269-51.035-75.701-51.035s-63.147,20.032-75.701,51.035
		C43.993,256.024,45.846,260.396,49.685,261.951z"/>
	<path d="M121.25,186.149c28.948,0,52.5-23.552,52.5-52.5s-23.552-52.5-52.5-52.5s-52.5,23.552-52.5,52.5
		S92.302,186.149,121.25,186.149z M121.25,96.149c20.678,0,37.5,16.822,37.5,37.5s-16.822,37.5-37.5,37.5s-37.5-16.822-37.5-37.5
		S100.572,96.149,121.25,96.149z"/>
	<path d="M442.5,27.5h-415C12.337,27.5,0,39.837,0,55v270c0,15.163,12.337,27.5,27.5,27.5h415c15.163,0,27.5-12.337,27.5-27.5V55
		C470,39.837,457.663,27.5,442.5,27.5z M455,55v222.5H242.5v-235h200C449.393,42.5,455,48.107,455,55z M27.5,42.5h200v235H15V55
		C15,48.107,20.607,42.5,27.5,42.5z M442.5,337.5h-415c-6.893,0-12.5-5.607-12.5-12.5v-32.5h440V325
		C455,331.893,449.393,337.5,442.5,337.5z"/>
	<circle cx="235" cy="315" r="7.5"/>
	<path d="M385,427.5h-92.5V375c0-4.143-3.357-7.5-7.5-7.5s-7.5,3.357-7.5,7.5v52.5h-85V375c0-4.143-3.357-7.5-7.5-7.5
		s-7.5,3.357-7.5,7.5v52.5H85c-4.143,0-7.5,3.357-7.5,7.5s3.357,7.5,7.5,7.5h300c4.143,0,7.5-3.357,7.5-7.5S389.143,427.5,385,427.5
		z"/>
</g>
</svg>