<?xml version="1.0" standalone="no"?>
<svg xmlns:xlink="http://www.w3.org/1999/xlink" id="wave"
    style="transform:rotate(180deg); transition: 0.3s" viewBox="0 0 1440 190" version="1.1"
    xmlns="http://www.w3.org/2000/svg">
    <defs>
        <linearGradient id="sw-gradient-0" x1="0" x2="0" y1="1" y2="0">
            <stop stop-color="rgba(83, 0, 130, 1)" offset="0%" />
            <stop stop-color="rgba(138, 5, 190, 1)" offset="100%" />
        </linearGradient>
    </defs>
    <path style="transform:translate(0, 0px); opacity:1" fill="url(#sw-gradient-0)"
        d="M0,152L48,129.8C96,108,192,63,288,57C384,51,480,82,576,101.3C672,120,768,127,864,136.2C960,146,1056,158,1152,161.5C1248,165,1344,158,1440,148.8C1536,139,1632,127,1728,110.8C1824,95,1920,76,2016,57C2112,38,2208,19,2304,9.5C2400,0,2496,0,2592,9.5C2688,19,2784,38,2880,60.2C2976,82,3072,108,3168,120.3C3264,133,3360,133,3456,126.7C3552,120,3648,108,3744,85.5C3840,63,3936,32,4032,25.3C4128,19,4224,38,4320,53.8C4416,70,4512,82,4608,85.5C4704,89,4800,82,4896,76C4992,70,5088,63,5184,63.3C5280,63,5376,70,5472,76C5568,82,5664,89,5760,85.5C5856,82,5952,70,6048,79.2C6144,89,6240,120,6336,126.7C6432,133,6528,114,6624,104.5C6720,95,6816,95,6864,95L6912,95L6912,190L6864,190C6816,190,6720,190,6624,190C6528,190,6432,190,6336,190C6240,190,6144,190,6048,190C5952,190,5856,190,5760,190C5664,190,5568,190,5472,190C5376,190,5280,190,5184,190C5088,190,4992,190,4896,190C4800,190,4704,190,4608,190C4512,190,4416,190,4320,190C4224,190,4128,190,4032,190C3936,190,3840,190,3744,190C3648,190,3552,190,3456,190C3360,190,3264,190,3168,190C3072,190,2976,190,2880,190C2784,190,2688,190,2592,190C2496,190,2400,190,2304,190C2208,190,2112,190,2016,190C1920,190,1824,190,1728,190C1632,190,1536,190,1440,190C1344,190,1248,190,1152,190C1056,190,960,190,864,190C768,190,672,190,576,190C480,190,384,190,288,190C192,190,96,190,48,190L0,190Z" />
</svg>