<?xml version="1.0" standalone="no"?>
<svg xmlns:xlink="http://www.w3.org/1999/xlink" id="wave"
    style="transform:rotate(0deg); transition: 0.3s" viewBox="0 0 1440 490" version="1.1"
    xmlns="http://www.w3.org/2000/svg">
    <defs>
        <linearGradient id="sw-gradient-0" x1="0" x2="0" y1="1" y2="0">
            <stop stop-color="rgba(83, 0, 130, 1)" offset="0%" />
            <stop stop-color="rgba(138, 5, 190, 1)" offset="100%" />
        </linearGradient>
    </defs>
    <path style="transform:translate(0, 0px); opacity:1" fill="url(#sw-gradient-0)"
        d="M0,49L60,49C120,49,240,49,360,114.3C480,180,600,310,720,334.8C840,359,960,278,1080,261.3C1200,245,1320,294,1440,261.3C1560,229,1680,114,1800,114.3C1920,114,2040,229,2160,261.3C2280,294,2400,245,2520,196C2640,147,2760,98,2880,81.7C3000,65,3120,82,3240,147C3360,212,3480,327,3600,367.5C3720,408,3840,376,3960,310.3C4080,245,4200,147,4320,138.8C4440,131,4560,212,4680,269.5C4800,327,4920,359,5040,359.3C5160,359,5280,327,5400,334.8C5520,343,5640,392,5760,359.3C5880,327,6000,212,6120,163.3C6240,114,6360,131,6480,187.8C6600,245,6720,343,6840,392C6960,441,7080,441,7200,416.5C7320,392,7440,343,7560,285.8C7680,229,7800,163,7920,179.7C8040,196,8160,294,8280,302.2C8400,310,8520,229,8580,187.8L8640,147L8640,490L8580,490C8520,490,8400,490,8280,490C8160,490,8040,490,7920,490C7800,490,7680,490,7560,490C7440,490,7320,490,7200,490C7080,490,6960,490,6840,490C6720,490,6600,490,6480,490C6360,490,6240,490,6120,490C6000,490,5880,490,5760,490C5640,490,5520,490,5400,490C5280,490,5160,490,5040,490C4920,490,4800,490,4680,490C4560,490,4440,490,4320,490C4200,490,4080,490,3960,490C3840,490,3720,490,3600,490C3480,490,3360,490,3240,490C3120,490,3000,490,2880,490C2760,490,2640,490,2520,490C2400,490,2280,490,2160,490C2040,490,1920,490,1800,490C1680,490,1560,490,1440,490C1320,490,1200,490,1080,490C960,490,840,490,720,490C600,490,480,490,360,490C240,490,120,490,60,490L0,490Z" />
</svg>